<?xml version="1.0" standalone="no"?>
<!DOCTYPE svg PUBLIC "-//W3C//DTD SVG 20010904//EN"
 "http://www.w3.org/TR/2001/REC-SVG-20010904/DTD/svg10.dtd">
<svg version="1.0" xmlns="http://www.w3.org/2000/svg"
 width="476.000000pt" height="476.000000pt" viewBox="0 0 476.000000 476.000000"
 preserveAspectRatio="xMidYMid meet">
<metadata>
Created by potrace 1.14, written by Peter Selinger 2001-2017
</metadata>
<g transform="translate(0.000000,476.000000) scale(0.100000,-0.100000)"
fill="#000000" stroke="none">
<path d="M0 3825 c0 -514 2 -935 5 -935 3 0 28 16 55 35 27 19 52 35 55 35 2
0 35 19 72 41 37 23 84 47 106 55 36 13 38 12 46 -9 11 -29 10 -30 -51 -62
-29 -15 -95 -50 -146 -76 -50 -27 -92 -47 -92 -45 0 3 -11 -5 -25 -18 l-25
-23 0 -597 0 -596 39 6 38 6 -24 -108 c-45 -205 -53 -249 -52 -284 l1 -35 9
35 c5 19 27 123 48 230 22 107 45 209 51 225 9 27 75 84 84 74 2 -2 -2 -26 -9
-54 -7 -27 -33 -138 -59 -245 -26 -107 -65 -271 -87 -363 -22 -92 -39 -185
-37 -205 2 -27 15 14 47 153 24 105 65 280 91 390 27 110 56 235 66 278 18 80
38 105 71 93 18 -7 20 7 -40 -231 -59 -235 -59 -235 -48 -235 5 0 32 98 60
218 29 119 56 224 60 232 8 15 100 54 108 46 3 -2 -9 -58 -26 -123 -17 -65
-63 -242 -102 -393 -70 -274 -115 -434 -169 -605 -77 -243 -121 -427 -118
-489 l3 -61 33 130 c18 72 43 166 56 210 69 234 140 496 166 620 53 243 195
782 211 802 7 8 33 13 70 13 57 0 59 -1 59 -27 0 -15 -25 -121 -56 -236 -30
-115 -54 -216 -52 -225 4 -18 47 131 104 357 19 74 35 136 37 137 10 11 80 54
82 52 3 -3 -78 -292 -233 -833 -33 -115 -74 -248 -90 -295 -66 -187 -112 -363
-99 -377 18 -17 24 0 110 322 13 50 40 146 60 215 20 69 86 303 147 520 122
431 132 462 152 456 129 -41 120 -36 115 -70 -6 -40 -155 -455 -233 -651 -34
-82 -67 -169 -74 -193 -10 -30 -16 -39 -23 -30 -6 9 -7 8 -3 -5 7 -22 -22 -97
-36 -94 -6 1 -13 -4 -16 -12 -3 -8 0 -11 7 -7 16 10 14 1 -25 -114 -61 -181
-85 -240 -96 -233 -7 3 -8 1 -4 -5 4 -7 -10 -62 -30 -124 -26 -76 -34 -113
-26 -116 7 -2 10 -15 7 -30 -4 -23 -3 -22 7 5 16 39 28 52 28 29 0 -17 -4 -28
-84 -245 -25 -69 -46 -126 -46 -128 0 -2 1019 -3 2265 -3 l2265 0 0 1300 c0
715 -2 1300 -5 1300 -3 0 -27 -16 -55 -36 -27 -20 -50 -32 -50 -27 0 4 -4 3
-8 -3 -4 -6 -49 -35 -100 -64 -67 -38 -107 -54 -143 -58 -37 -3 -49 -1 -49 9
0 11 -2 11 -9 1 -6 -11 -20 -11 -75 -1 l-67 13 48 20 c27 12 71 34 98 49 27
15 69 37 94 48 26 11 41 23 35 28 -5 5 -52 12 -104 15 -52 4 -113 11 -135 17
-47 13 -122 46 -129 57 -2 4 43 16 100 27 l105 18 92 -22 c51 -12 144 -30 207
-41 63 -10 123 -21 133 -25 16 -7 17 48 17 1064 l0 1071 -825 0 c-653 0 -825
-3 -825 -12 0 -7 14 -85 30 -173 17 -88 41 -232 55 -320 13 -88 41 -234 61
-325 20 -91 39 -185 42 -209 4 -38 2 -42 -14 -38 -11 3 -46 11 -79 17 -118 23
-137 28 -145 36 -19 20 -78 373 -100 594 -14 149 -41 381 -46 408 -4 22 -7 22
-153 22 l-148 0 4 -157 c5 -190 17 -376 38 -576 9 -82 15 -161 13 -176 l-3
-27 -150 19 c-99 12 -154 23 -161 32 -15 20 -24 243 -24 593 l0 292 -174 0
-173 0 -12 -137 c-6 -76 -17 -172 -22 -213 -6 -41 -14 -176 -18 -300 l-6 -225
-178 -8 c-98 -5 -181 -7 -183 -4 -9 8 36 447 85 825 l7 62 -166 0 -166 0 -18
-102 c-66 -371 -153 -761 -191 -851 -21 -51 -62 -70 -188 -90 -9 -2 -23 -9
-29 -15 -14 -14 -38 -16 -38 -3 0 5 6 12 13 14 9 4 9 6 -1 6 -8 1 -16 -8 -19
-19 -3 -11 -10 -20 -15 -20 -13 0 -2 55 43 210 21 74 41 153 45 175 28 174
148 629 175 668 l20 27 -561 0 -560 0 0 -935z m3481 839 c61 -40 75 -54 96
-100 14 -30 34 -98 45 -152 10 -53 28 -122 38 -152 17 -53 30 -99 124 -434 25
-88 43 -163 40 -168 -3 -4 -1 -8 4 -8 7 0 32 -64 32 -83 0 -7 -53 0 -80 10
-17 6 -39 10 -89 14 -40 4 -54 22 -87 118 -59 169 -128 494 -180 841 -8 52
-16 110 -19 128 -3 17 -4 32 -1 32 3 0 38 -21 77 -46z m-1522 -899 c12 -49 41
-145 64 -212 23 -67 40 -124 37 -126 -7 -7 -408 -13 -414 -6 -10 10 -56 195
-74 302 -15 87 -16 109 -6 118 14 11 354 29 365 19 3 -3 16 -45 28 -95z m563
60 c67 -9 133 -20 146 -25 15 -7 37 -40 65 -97 22 -49 83 -155 134 -237 52
-82 92 -151 89 -153 -4 -4 -201 26 -313 48 l-52 10 -70 132 c-69 130 -151 309
-151 327 0 13 6 13 152 -5z m-1542 -154 c-25 -20 -103 -90 -174 -156 -314
-292 -354 -328 -410 -365 -32 -22 -62 -40 -67 -40 -5 0 28 32 73 72 120 104
327 314 376 380 42 57 74 83 86 71 3 -3 6 -1 6 6 0 7 4 10 9 7 5 -4 11 -3 13
1 5 12 122 72 128 66 3 -3 -15 -21 -40 -42z m2250 5 c103 -24 105 -25 144 -73
50 -60 178 -188 364 -362 79 -73 140 -137 135 -142 -4 -4 -87 10 -183 31 -96
22 -186 40 -200 40 -40 0 -76 31 -142 121 -34 46 -83 113 -110 149 -44 61
-148 238 -148 253 0 11 30 8 140 -17z m-2074 -173 c-4 -75 -8 -138 -9 -140 -2
-1 -77 -18 -168 -37 -91 -19 -173 -38 -182 -42 -9 -3 -17 -4 -17 -1 0 5 129
131 244 238 38 35 80 76 95 90 14 15 30 27 35 28 5 1 6 -56 2 -136z m2632 16
c2 -5 8 -6 13 -3 5 3 27 3 47 -1 40 -6 117 -69 106 -86 -3 -5 0 -8 8 -7 7 2
12 -5 11 -15 0 -12 4 -16 13 -13 7 3 40 -13 72 -34 77 -52 194 -117 415 -232
97 -51 177 -96 177 -100 0 -13 -365 -12 -386 0 -22 13 -460 433 -493 473 -32
39 -33 41 -10 34 13 -4 26 -12 27 -16z m-1762 -125 c62 -6 64 -7 64 -35 l0
-28 -210 -3 c-221 -3 -220 -3 -220 42 0 16 9 19 53 22 134 8 255 9 313 2z
m-866 -73 c27 -51 20 -55 -147 -89 -87 -17 -196 -42 -243 -56 -90 -26 -100
-24 -100 21 0 16 9 24 38 34 20 6 42 15 47 19 14 10 331 83 387 89 4 1 12 -8
18 -18z m1674 -11 c82 -16 153 -35 158 -42 4 -7 8 -28 8 -46 0 -28 -3 -32 -22
-28 -60 13 -238 46 -278 51 -25 4 -52 7 -60 8 -28 4 -40 18 -40 46 0 15 3 31
7 34 13 13 79 6 227 -23z m-1113 -41 c14 -27 23 -139 15 -193 l-7 -47 -32 48
c-17 26 -32 50 -34 52 -2 3 -8 0 -14 -6 -13 -13 -6 -26 60 -128 38 -59 112
-154 159 -203 26 -29 18 -26 -102 28 -37 17 -45 24 -35 32 11 8 10 9 -4 4 -20
-6 -44 13 -72 57 -16 25 -55 38 -55 18 0 -34 144 -174 253 -245 29 -19 84 -66
122 -106 72 -75 69 -82 -16 -39 -20 10 -103 39 -185 64 -82 26 -163 53 -179
61 -34 16 -170 151 -199 198 -14 21 -20 63 -28 175 -8 130 -17 175 -32 160
-10 -10 11 -330 22 -341 15 -15 16 -48 2 -48 -5 0 -10 -5 -10 -11 0 -6 -11
-24 -25 -41 -30 -35 -33 -18 -10 47 19 51 19 79 0 95 -11 9 -15 9 -15 1 0 -7
-3 -10 -8 -7 -4 2 -8 -14 -8 -37 -1 -27 -8 -45 -20 -54 -11 -7 -31 -25 -46
-40 -33 -31 -36 -21 -9 24 24 39 61 156 61 192 0 19 -5 27 -19 28 -14 1 -18
-3 -15 -15 8 -24 -33 27 -50 63 -19 39 -32 160 -18 169 32 20 447 75 509 68
20 -3 38 -12 44 -23z m1166 -89 c87 -17 210 -43 273 -57 63 -13 157 -33 209
-44 52 -10 98 -22 102 -26 4 -5 14 -50 23 -101 10 -62 37 -149 78 -255 51
-131 63 -172 61 -212 -2 -44 -34 -191 -62 -283 -10 -34 -68 -143 -80 -152 -4
-3 -17 -22 -30 -42 -12 -21 -23 -38 -24 -38 -1 0 -2 60 -2 132 0 73 -2 165 -4
203 -3 39 -1 81 4 94 6 18 5 23 -5 19 -16 -5 -14 -1 -75 -133 -50 -107 -103
-180 -141 -197 -13 -6 -24 -17 -24 -23 0 -7 -7 -18 -15 -25 -17 -14 -18 -10
-6 23 5 13 17 101 26 196 9 95 20 183 25 197 6 14 21 75 35 137 14 62 28 121
32 132 5 19 4 18 -19 -3 -17 -16 -28 -38 -32 -70 -10 -71 -56 -211 -89 -270
-17 -31 -47 -65 -72 -82 -67 -46 -338 -181 -353 -175 -7 3 -11 1 -8 -4 3 -5
-6 -12 -20 -15 -14 -4 -35 -16 -47 -26 -22 -21 -37 -19 -19 2 5 7 22 36 37 63
15 28 49 79 75 115 98 137 106 157 120 330 5 58 18 139 29 180 21 78 28 161
12 145 -5 -6 -16 -47 -25 -93 -8 -46 -26 -107 -39 -135 -24 -51 -102 -145
-112 -135 -3 3 1 22 8 44 8 21 20 76 27 121 15 98 7 140 -53 283 -22 52 -50
123 -63 158 l-24 63 54 -5 c30 -2 126 -18 213 -36z m-2005 -110 c-3 -83 -1
-98 38 -210 41 -118 45 -141 54 -304 l5 -79 -23 49 c-31 66 -66 170 -66 193 0
22 -15 35 -29 27 -9 -6 14 -107 42 -181 28 -76 93 -200 131 -249 21 -27 57
-90 81 -140 24 -50 54 -107 67 -126 l23 -35 -27 20 c-15 11 -28 23 -28 28 0 4
-7 7 -16 7 -8 0 -13 4 -9 9 11 19 -17 58 -51 70 -19 7 -32 17 -29 22 3 5 -1 6
-9 3 -9 -3 -24 5 -38 22 -13 15 -30 35 -39 44 -21 22 -89 135 -89 148 0 5 -7
15 -15 22 -8 7 -15 21 -15 31 0 10 -9 23 -19 29 -28 14 -31 13 -31 -15 0 -14
4 -25 9 -25 5 0 11 -10 15 -22 3 -13 22 -50 42 -83 33 -55 68 -135 59 -135 -2
0 -18 24 -36 52 -17 29 -37 57 -44 63 -20 17 -82 117 -105 169 -11 27 -30 86
-42 130 -18 70 -20 97 -14 196 8 125 37 305 52 320 8 8 112 35 149 39 6 1 9
-33 7 -89z m2776 50 c285 -62 268 -55 273 -105 5 -37 16 -38 -226 16 -251 55
-245 53 -245 95 0 19 3 34 6 34 3 0 89 -18 192 -40z m-2987 -99 c-21 -114 -33
-258 -26 -327 l6 -71 -63 9 c-107 14 -306 64 -459 114 -124 41 -124 41 -28
100 42 25 66 34 81 29 17 -5 19 -4 9 3 -16 11 -11 14 154 95 103 51 259 115
294 120 11 2 24 7 28 11 14 13 15 -25 4 -83z m2913 5 c34 -8 93 -21 131 -29
172 -38 225 -51 225 -57 0 -15 132 -112 191 -140 35 -17 72 -35 81 -40 10 -6
25 -10 33 -10 9 0 14 -4 11 -8 -3 -5 -49 -17 -103 -27 -54 -10 -102 -21 -107
-26 -13 -12 80 -65 164 -95 41 -14 83 -30 92 -35 9 -4 18 -5 20 0 2 4 14 4 28
1 22 -6 18 -11 -45 -39 -38 -18 -103 -44 -143 -57 -74 -25 -106 -25 -199 2
-32 9 -30 -14 2 -26 74 -28 398 -65 494 -56 l66 6 -45 -24 c-25 -13 -76 -36
-115 -51 -77 -31 -177 -97 -304 -203 -135 -112 -199 -145 -376 -191 -32 -9
-45 -19 -64 -53 -13 -24 -21 -40 -17 -36 10 9 166 -148 166 -167 0 -3 -8 -2
-17 4 -22 11 -165 60 -210 71 -27 7 -33 5 -39 -12 -3 -11 -8 -17 -11 -15 -6 7
-43 176 -43 200 0 11 20 48 45 84 79 112 101 169 141 350 31 144 30 162 -7
258 -54 140 -75 216 -115 413 -5 26 -7 26 70 8z m949 -27 c157 0 178 -2 199
-19 30 -25 18 -37 -52 -50 -79 -15 -277 -23 -329 -13 -39 7 -46 12 -57 45 -15
43 -9 51 32 44 17 -4 110 -6 207 -7z m-1828 -76 c31 -73 37 -122 24 -200 -7
-40 -16 -76 -20 -79 -5 -3 -9 -15 -9 -27 0 -18 -2 -20 -11 -7 -9 12 -10 12 -5
-4 10 -30 -13 -95 -60 -166 -24 -37 -44 -70 -44 -74 0 -17 22 -1 67 45 26 28
74 79 106 112 31 33 57 64 57 69 0 4 4 8 8 8 11 0 3 -118 -10 -155 -12 -32
-55 -98 -85 -130 -10 -11 -28 -42 -41 -70 -13 -27 -48 -94 -79 -148 -30 -54
-53 -101 -50 -104 9 -9 80 19 123 48 22 15 94 56 160 90 65 34 153 79 194 101
41 22 90 56 108 75 l32 36 -6 -49 c-12 -95 -72 -224 -104 -224 -6 0 -10 8 -10
17 0 13 -3 14 -11 6 -6 -6 -17 -9 -24 -7 -6 3 -17 -2 -24 -10 -11 -13 -9 -17
13 -28 l27 -12 -48 -48 c-47 -47 -59 -51 -105 -33 -14 5 -18 2 -18 -14 0 -12
-5 -21 -11 -21 -7 0 -9 -11 -6 -29 6 -29 6 -29 -26 -20 -49 14 -53 11 -26 -17
l24 -26 -55 -49 c-37 -32 -64 -48 -82 -49 -21 0 -26 -4 -21 -16 8 -21 -23 -45
-45 -36 -10 3 -22 13 -29 21 -6 9 -15 13 -18 9 -4 -4 0 -15 9 -24 19 -18 17
-60 -2 -57 -6 2 -11 -1 -9 -5 3 -12 -57 -62 -74 -62 -8 0 -29 9 -46 20 -36 21
-44 10 -18 -24 8 -11 15 -23 15 -26 0 -10 -81 -53 -87 -46 -3 3 -12 -2 -18
-11 -11 -15 -15 -15 -29 -4 -22 18 -49 6 -41 -18 4 -12 0 -21 -12 -25 -10 -4
-19 -2 -21 3 -2 6 -12 11 -23 11 -14 0 -19 -7 -19 -29 0 -20 -6 -30 -20 -34
-13 -3 -20 0 -20 10 0 8 -7 13 -17 11 -11 -2 -17 -12 -16 -25 2 -18 -6 -23
-50 -33 -102 -22 -95 -23 -99 7 -4 39 -22 35 -26 -4 -3 -33 -16 -43 -25 -20
-4 7 -6 6 -6 -4 -1 -11 -12 -18 -32 -21 -31 -5 -31 -4 -25 32 6 41 1 51 -20
43 -9 -3 -14 -20 -14 -44 0 -21 -4 -39 -8 -39 -4 0 -6 16 -4 35 6 52 -22 46
-34 -7 -9 -40 -12 -42 -62 -56 -69 -19 -96 -8 -113 47 -10 34 -9 45 5 76 18
38 16 49 -14 65 -15 8 -17 6 -13 -13 4 -18 3 -19 -6 -7 -6 8 -8 32 -4 53 5 33
3 38 -11 35 -16 -3 -73 93 -163 272 -10 19 -50 82 -88 140 -89 133 -167 267
-169 288 -1 9 -14 37 -30 62 -71 109 -106 237 -106 384 0 69 2 77 15 66 8 -7
15 -20 15 -29 0 -14 2 -14 10 -1 9 13 12 13 23 -1 20 -26 57 -30 85 -8 14 10
31 19 39 19 7 0 25 7 38 16 30 20 30 18 6 -38 -24 -56 -75 -110 -90 -95 -7 7
-11 7 -11 1 0 -18 22 -33 39 -27 9 3 34 22 56 43 22 20 61 54 87 74 l47 38
-20 -74 c-11 -40 -34 -103 -50 -140 -43 -98 -41 -103 44 -172 37 -29 45 -41
35 -48 -14 -9 -15 -7 47 -54 13 -10 21 -23 18 -28 -4 -6 2 -4 13 5 10 9 27 19
37 22 9 4 17 10 17 15 0 10 -125 107 -178 138 -41 23 -40 43 6 151 17 40 39
108 48 152 9 44 20 85 24 91 4 7 32 -15 73 -57 57 -59 103 -90 182 -124 11 -5
56 -17 100 -28 191 -49 263 -74 316 -112 46 -32 52 -18 13 31 -90 115 -140
169 -181 199 -18 12 -33 27 -33 33 0 7 4 7 13 0 6 -5 28 -13 47 -16 19 -4 65
-14 103 -23 37 -9 70 -13 74 -10 3 4 -24 20 -61 36 -64 29 -148 97 -187 152
l-19 27 47 -14 c27 -7 126 -32 221 -55 l172 -42 62 17 c68 19 89 29 233 110
55 31 103 56 107 56 4 0 15 -17 23 -37z m1394 -20 c32 -10 51 -22 52 -32 0
-10 3 -11 5 -4 4 9 13 9 37 -1 18 -8 45 -19 61 -26 24 -9 27 -13 15 -21 -10
-7 -6 -8 14 -3 17 4 27 2 27 -6 0 -6 5 -8 10 -5 6 3 16 3 23 -2 6 -4 19 -8 27
-9 55 -4 56 -4 40 -14 -16 -10 -71 -6 -155 12 -58 12 -166 65 -210 102 -36 31
-20 33 54 9z m316 -33 l30 -1 -34 -15 c-31 -13 -39 -13 -85 5 l-51 20 55 -4
c30 -2 69 -4 85 -5z m-4005 -248 c8 -3 23 -4 33 -3 9 1 17 -3 17 -9 0 -6 9
-10 20 -8 10 2 19 -1 18 -7 -1 -12 -15 -10 -123 16 -44 10 -82 24 -84 30 -2 8
-5 8 -10 1 -9 -14 -101 16 -101 33 0 8 32 3 108 -18 59 -16 114 -32 122 -35z
m130 -31 c0 -6 -4 -13 -10 -16 -5 -3 -10 1 -10 9 0 9 5 16 10 16 6 0 10 -4 10
-9z m243 -263 c55 -89 88 -151 83 -155 -2 -2 -31 5 -64 16 -83 28 -143 41
-247 55 l-90 12 47 32 c66 45 190 112 209 112 10 0 35 -30 62 -72z m3703 -53
c43 -8 81 -19 84 -25 4 -6 15 -8 25 -4 12 5 16 4 12 -3 -4 -6 -44 -25 -89 -43
-46 -18 -112 -47 -148 -65 -36 -17 -103 -50 -150 -73 -47 -23 -91 -42 -98 -42
-7 0 -20 -4 -30 -9 -17 -9 -125 -31 -130 -26 -1 1 13 13 32 26 18 13 72 57
120 98 88 76 248 180 278 181 9 0 51 -7 94 -15z m-1079 -57 c-3 -7 -5 -2 -5
12 0 14 2 19 5 13 2 -7 2 -19 0 -25z m-12 -167 c4 -31 2 -75 -3 -99 -6 -23 -7
-62 -4 -85 6 -39 6 -40 12 -13 8 48 27 41 34 -12 7 -51 63 -284 89 -364 l15
-48 -47 -33 c-44 -32 -298 -187 -306 -187 -2 0 -32 -16 -67 -37 -72 -41 -192
-102 -195 -99 -2 1 12 58 31 127 18 68 52 194 75 280 23 86 56 199 74 250 58
165 78 223 84 248 3 13 24 42 46 65 63 65 117 136 124 164 5 22 8 16 19 -37 7
-35 16 -89 19 -120z m-266 3 c-6 -16 -13 -24 -16 -17 -5 13 16 58 23 50 3 -2
-1 -17 -7 -33z m-1929 -67 c35 -23 71 -55 80 -72 8 -16 33 -59 56 -95 23 -36
52 -89 64 -118 12 -29 26 -52 30 -52 9 0 60 -112 60 -133 0 -35 -141 -63 -360
-71 -69 -2 -72 -2 -44 10 43 18 206 127 254 170 22 20 40 45 40 55 0 15 -5 17
-37 11 -76 -14 -273 -3 -329 18 -27 11 -27 24 1 80 7 14 20 52 30 85 27 95 56
155 74 155 9 0 45 -19 81 -43z m-255 6 c-3 -16 -38 -116 -76 -223 -39 -107
-85 -238 -104 -290 -150 -426 -212 -595 -261 -720 -31 -80 -72 -188 -91 -240
-45 -128 -45 -127 -49 -114 -3 6 14 62 37 125 22 63 57 157 76 209 38 106 96
272 183 525 32 94 95 274 140 400 45 127 91 258 102 293 13 38 26 62 35 62 11
0 13 -7 8 -27z m2155 1 c0 -6 -9 -19 -20 -29 -20 -18 -20 -17 -20 13 0 25 4
30 20 29 11 -1 20 -6 20 -13z m-54 -90 c-20 -29 -20 -48 -1 -64 12 -10 15 -10
15 1 0 8 18 34 41 59 24 28 35 35 27 20 -7 -14 -13 -27 -13 -30 -1 -3 -5 -25
-9 -48 -4 -24 -21 -79 -37 -123 -25 -69 -107 -362 -128 -459 -20 -89 -65 -212
-80 -217 -9 -3 -23 -12 -31 -18 -8 -7 -67 -39 -130 -73 -249 -130 -319 -168
-429 -234 -62 -37 -115 -68 -117 -68 -2 0 -28 -16 -59 -35 l-55 -36 -25 57
c-14 31 -25 60 -25 65 0 5 -4 17 -10 27 -17 30 -56 134 -90 237 -18 55 -47
130 -65 168 l-32 67 41 2 c23 1 68 2 101 3 77 2 115 12 115 30 0 16 -15 18
-120 17 -63 0 -64 0 -20 8 25 5 74 16 110 25 36 9 80 19 99 22 18 3 42 14 53
25 11 11 29 18 41 18 37 -3 44 -1 49 18 5 17 163 102 192 102 8 0 19 6 23 13
4 7 27 25 51 40 24 15 67 51 96 80 30 29 82 77 117 107 35 30 76 67 91 82 44
42 84 68 93 60 5 -4 5 -1 0 7 -5 9 12 31 56 72 l64 59 8 -31 c6 -22 4 -38 -7
-55z m977 11 c59 -10 107 -21 107 -25 0 -3 -30 -16 -67 -27 -80 -25 -211 -30
-324 -12 -41 7 -80 12 -86 12 -26 1 -12 17 15 17 15 0 70 15 122 34 53 18 102
30 110 26 8 -4 63 -15 123 -25z m-2473 -541 c0 -10 -13 -20 -40 -29 -7 -3 -82
-36 -105 -47 -11 -5 -7 2 10 16 17 14 33 26 36 26 3 0 12 11 19 25 8 15 20 23
27 20 9 -3 11 0 7 6 -4 6 0 15 7 20 15 9 39 -14 39 -37z m90 -168 c0 -7 -12
-23 -26 -37 -14 -13 -34 -40 -45 -59 -27 -51 -23 -20 7 54 21 53 29 63 45 59
10 -3 19 -11 19 -17z m2510 -331 c0 -5 -5 -3 -10 5 -5 8 -10 20 -10 25 0 6 5
3 10 -5 5 -8 10 -19 10 -25z m47 -137 c-2 -13 -4 -5 -4 17 -1 22 1 32 4 23 2
-10 2 -28 0 -40z m281 -313 c0 -16 -2 -15 -8 5 -4 14 -8 36 -8 50 0 22 1 22 8
-5 4 -16 8 -39 8 -50z"/>
<path d="M3621 4296 c-1 -29 2 -37 10 -29 8 8 8 19 1 40 -10 28 -10 28 -11
-11z"/>
<path d="M3617 4195 c-13 -73 -19 -362 -7 -343 6 10 10 48 10 85 -2 136 0 184
9 201 5 9 6 35 2 57 l-7 40 -7 -40z"/>
<path d="M3650 4180 c0 -11 4 -20 9 -20 5 0 7 9 4 20 -3 11 -7 20 -9 20 -2 0
-4 -9 -4 -20z"/>
<path d="M3664 4126 c-3 -8 -4 -31 -2 -52 3 -36 4 -35 8 14 5 53 4 63 -6 38z"/>
<path d="M3692 3980 c0 -14 2 -19 5 -12 2 6 2 18 0 25 -3 6 -5 1 -5 -13z"/>
<path d="M3721 3964 c0 -11 3 -14 6 -6 3 7 2 16 -1 19 -3 4 -6 -2 -5 -13z"/>
<path d="M3721 3930 c0 -8 4 -22 9 -30 12 -18 12 -2 0 25 -6 13 -9 15 -9 5z"/>
<path d="M3701 3894 c0 -11 3 -14 6 -6 3 7 2 16 -1 19 -3 4 -6 -2 -5 -13z"/>
<path d="M3601 3784 c0 -11 3 -14 6 -6 3 7 2 16 -1 19 -3 4 -6 -2 -5 -13z"/>
<path d="M3771 3684 c0 -11 3 -14 6 -6 3 7 2 16 -1 19 -3 4 -6 -2 -5 -13z"/>
<path d="M3645 3650 c3 -5 8 -10 11 -10 2 0 4 5 4 10 0 6 -5 10 -11 10 -5 0
-7 -4 -4 -10z"/>
<path d="M3670 3635 c0 -14 4 -25 9 -25 4 0 6 11 3 25 -2 14 -6 25 -8 25 -2 0
-4 -11 -4 -25z"/>
<path d="M3855 3450 c36 -24 55 -25 55 -4 0 13 -3 14 -14 5 -10 -9 -16 -8 -26
4 -7 8 -20 15 -29 15 -10 0 -5 -7 14 -20z"/>
<path d="M1301 3164 c0 -11 3 -14 6 -6 3 7 2 16 -1 19 -3 4 -6 -2 -5 -13z"/>
<path d="M1312 3060 c0 -19 2 -27 5 -17 2 9 2 25 0 35 -3 9 -5 1 -5 -18z"/>
<path d="M1545 2990 c3 -5 8 -10 11 -10 2 0 4 5 4 10 0 6 -5 10 -11 10 -5 0
-7 -4 -4 -10z"/>
<path d="M1810 2820 c0 -5 5 -10 11 -10 5 0 7 5 4 10 -3 6 -8 10 -11 10 -2 0
-4 -4 -4 -10z"/>
<path d="M2856 2984 c-4 -9 -4 -19 -1 -22 2 -3 7 3 11 12 4 9 4 19 1 22 -2 3
-7 -3 -11 -12z"/>
<path d="M2741 2974 c0 -11 3 -14 6 -6 3 7 2 16 -1 19 -3 4 -6 -2 -5 -13z"/>
<path d="M3450 2980 c0 -5 5 -10 10 -10 6 0 10 5 10 10 0 6 -4 10 -10 10 -5 0
-10 -4 -10 -10z"/>
<path d="M3461 2914 c0 -11 3 -14 6 -6 3 7 2 16 -1 19 -3 4 -6 -2 -5 -13z"/>
<path d="M2782 2850 c0 -14 2 -19 5 -12 2 6 2 18 0 25 -3 6 -5 1 -5 -13z"/>
<path d="M3185 2851 c-3 -5 -1 -12 5 -16 5 -3 10 1 10 9 0 18 -6 21 -15 7z"/>
<path d="M3027 2773 c-4 -3 -7 -11 -7 -17 0 -6 5 -5 12 2 6 6 9 14 7 17 -3 3
-9 2 -12 -2z"/>
<path d="M2891 2694 c0 -11 3 -14 6 -6 3 7 2 16 -1 19 -3 4 -6 -2 -5 -13z"/>
<path d="M3403 2541 c-9 -14 -9 -22 -2 -27 15 -9 21 1 17 26 -3 21 -3 21 -15
1z"/>
<path d="M3356 2485 c-4 -14 -3 -32 2 -40 5 -10 8 -1 9 25 2 46 -2 51 -11 15z"/>
<path d="M3262 2440 c0 -14 2 -19 5 -12 2 6 2 18 0 25 -3 6 -5 1 -5 -13z"/>
<path d="M3366 2403 c-6 -14 -5 -15 5 -6 7 7 10 15 7 18 -3 3 -9 -2 -12 -12z"/>
<path d="M2811 2294 c0 -11 3 -14 6 -6 3 7 2 16 -1 19 -3 4 -6 -2 -5 -13z"/>
<path d="M3536 2287 c3 -10 9 -15 12 -12 3 3 0 11 -7 18 -10 9 -11 8 -5 -6z"/>
<path d="M2765 2269 c-4 -12 -3 -25 2 -29 4 -5 8 4 9 21 1 34 -2 37 -11 8z"/>
<path d="M3461 2274 c0 -11 3 -14 6 -6 3 7 2 16 -1 19 -3 4 -6 -2 -5 -13z"/>
<path d="M3240 2205 c0 -8 2 -15 4 -15 2 0 6 7 10 15 3 8 1 15 -4 15 -6 0 -10
-7 -10 -15z"/>
<path d="M2711 2174 c0 -11 3 -14 6 -6 3 7 2 16 -1 19 -3 4 -6 -2 -5 -13z"/>
<path d="M701 2944 c0 -11 3 -14 6 -6 3 7 2 16 -1 19 -3 4 -6 -2 -5 -13z"/>
<path d="M911 2814 c0 -11 3 -14 6 -6 3 7 2 16 -1 19 -3 4 -6 -2 -5 -13z"/>
<path d="M930 2721 c0 -5 5 -13 10 -16 6 -3 10 -2 10 4 0 5 -4 13 -10 16 -5 3
-10 2 -10 -4z"/>
<path d="M911 2704 c0 -11 3 -14 6 -6 3 7 2 16 -1 19 -3 4 -6 -2 -5 -13z"/>
<path d="M810 2510 c0 -5 5 -10 10 -10 6 0 10 5 10 10 0 6 -4 10 -10 10 -5 0
-10 -4 -10 -10z"/>
<path d="M905 2360 c3 -5 8 -10 11 -10 2 0 4 5 4 10 0 6 -5 10 -11 10 -5 0 -7
-4 -4 -10z"/>
<path d="M985 2320 c3 -5 8 -10 11 -10 2 0 4 5 4 10 0 6 -5 10 -11 10 -5 0 -7
-4 -4 -10z"/>
<path d="M992 2270 c0 -14 2 -19 5 -12 2 6 2 18 0 25 -3 6 -5 1 -5 -13z"/>
<path d="M550 3039 c0 -5 5 -7 10 -4 6 3 10 1 10 -4 0 -6 4 -11 10 -11 5 0 7
7 4 15 -7 17 -34 21 -34 4z"/>
<path d="M490 3020 c0 -5 4 -10 9 -10 6 0 13 5 16 10 3 6 -1 10 -9 10 -9 0
-16 -4 -16 -10z"/>
<path d="M615 3010 c3 -5 11 -10 16 -10 6 0 7 5 4 10 -3 6 -11 10 -16 10 -6 0
-7 -4 -4 -10z"/>
<path d="M613 2835 c0 -22 2 -30 4 -17 2 12 2 30 0 40 -3 9 -5 -1 -4 -23z"/>
<path d="M200 2754 c0 -8 5 -12 10 -9 6 3 10 10 10 16 0 5 -4 9 -10 9 -5 0
-10 -7 -10 -16z"/>
<path d="M610 2669 c0 -11 4 -18 10 -14 5 3 7 12 3 20 -7 21 -13 19 -13 -6z"/>
<path d="M3962 2831 c-11 -7 -11 -9 1 -14 16 -6 27 0 27 15 0 10 -11 10 -28
-1z"/>
<path d="M4001 2794 c0 -11 3 -14 6 -6 3 7 2 16 -1 19 -3 4 -6 -2 -5 -13z"/>
<path d="M4050 2730 c0 -5 5 -10 11 -10 5 0 7 5 4 10 -3 6 -8 10 -11 10 -2 0
-4 -4 -4 -10z"/>
<path d="M3641 2288 c0 -9 -4 -25 -7 -35 -5 -14 -4 -15 5 -7 7 7 11 22 8 35
-2 13 -5 16 -6 7z"/>
<path d="M4175 2270 c-3 -5 -13 -6 -22 -3 -10 4 -14 2 -10 -4 4 -6 1 -14 -5
-16 -9 -4 -8 -6 2 -6 8 0 26 8 40 19 14 11 20 20 13 20 -6 0 -14 -4 -18 -10z"/>
<path d="M3948 2253 c6 -2 18 -2 25 0 6 3 1 5 -13 5 -14 0 -19 -2 -12 -5z"/>
<path d="M3620 2181 c0 -6 5 -13 10 -16 6 -3 10 1 10 9 0 9 -4 16 -10 16 -5 0
-10 -4 -10 -9z"/>
<path d="M3495 1910 c-3 -5 -1 -10 4 -10 6 0 11 5 11 10 0 6 -2 10 -4 10 -3 0
-8 -4 -11 -10z"/>
<path d="M3670 1737 c0 -8 7 -14 15 -14 11 0 12 4 4 14 -6 7 -13 13 -15 13 -2
0 -4 -6 -4 -13z"/>
<path d="M2640 2861 c0 -7 -5 -9 -12 -5 -7 5 -8 3 -3 -5 5 -9 10 -10 18 -2 6
6 8 14 4 18 -4 3 -7 1 -7 -6z"/>
<path d="M2600 2821 c0 -5 5 -13 10 -16 6 -3 10 -2 10 4 0 5 -4 13 -10 16 -5
3 -10 2 -10 -4z"/>
<path d="M2625 2769 c4 -13 14 -35 23 -49 l16 -25 7 34 c4 18 13 37 21 42 10
7 10 9 0 9 -7 0 -15 -7 -18 -15 -8 -19 -34 -20 -34 -1 0 8 -5 18 -11 22 -8 4
-9 -1 -4 -17z"/>
<path d="M1210 2559 c0 -5 5 -7 10 -4 6 3 10 8 10 11 0 2 -4 4 -10 4 -5 0 -10
-5 -10 -11z"/>
<path d="M1032 2530 c0 -14 2 -19 5 -12 2 6 2 18 0 25 -3 6 -5 1 -5 -13z"/>
<path d="M1874 2521 c5 -8 4 -16 -4 -21 -7 -4 -8 -10 -4 -13 5 -3 14 1 21 8
10 10 9 16 -4 27 -14 11 -16 11 -9 -1z"/>
<path d="M2772 2498 c6 -18 28 -21 28 -4 0 9 -7 16 -16 16 -9 0 -14 -5 -12
-12z"/>
<path d="M1241 2464 c0 -11 3 -14 6 -6 3 7 2 16 -1 19 -3 4 -6 -2 -5 -13z"/>
<path d="M1211 2454 c0 -11 3 -14 6 -6 3 7 2 16 -1 19 -3 4 -6 -2 -5 -13z"/>
<path d="M1050 2440 c0 -5 5 -10 11 -10 5 0 7 5 4 10 -3 6 -8 10 -11 10 -2 0
-4 -4 -4 -10z"/>
<path d="M1945 2440 c3 -5 8 -10 11 -10 2 0 4 5 4 10 0 6 -5 10 -11 10 -5 0
-7 -4 -4 -10z"/>
<path d="M2731 2414 c0 -11 3 -14 6 -6 3 7 2 16 -1 19 -3 4 -6 -2 -5 -13z"/>
<path d="M2757 2403 c-4 -3 -7 -11 -7 -17 0 -6 5 -5 12 2 6 6 9 14 7 17 -3 3
-9 2 -12 -2z"/>
<path d="M2695 2390 c3 -5 8 -10 11 -10 2 0 4 5 4 10 0 6 -5 10 -11 10 -5 0
-7 -4 -4 -10z"/>
<path d="M1391 2387 c2 -1 12 -9 22 -16 15 -12 17 -12 11 3 -3 9 -13 16 -22
16 -8 0 -13 -1 -11 -3z"/>
<path d="M2644 2375 c-3 -8 -4 -20 -2 -27 3 -7 7 -1 10 15 6 29 1 36 -8 12z"/>
<path d="M1525 2352 c-9 -9 -5 -41 5 -47 6 -4 17 -2 24 4 13 11 67 1 89 -18 7
-5 29 -12 50 -16 81 -16 14 49 -74 70 -39 9 -88 13 -94 7z"/>
<path d="M1430 2340 c0 -5 5 -10 10 -10 6 0 10 5 10 10 0 6 -4 10 -10 10 -5 0
-10 -4 -10 -10z"/>
<path d="M1510 2288 c0 -9 5 -20 10 -23 13 -8 13 5 0 25 -8 13 -10 13 -10 -2z"/>
<path d="M2477 2264 c4 -10 -4 -25 -23 -40 -67 -57 -96 -61 -479 -69 -225 -4
-388 -16 -437 -31 -10 -3 -18 -1 -18 3 0 5 34 15 76 22 82 14 144 36 144 51 0
12 7 13 -73 -9 -37 -11 -111 -25 -165 -31 -98 -12 -142 -29 -142 -55 0 -8 9
-15 20 -15 11 0 20 4 20 8 0 9 67 32 94 32 9 0 16 -4 16 -10 0 -5 -12 -10 -26
-10 -35 0 -111 -49 -117 -75 -2 -11 -8 -29 -11 -40 -5 -13 -2 -12 8 5 8 14 15
21 16 16 0 -5 9 -1 19 8 19 17 20 17 30 -2 6 -11 14 -45 17 -76 6 -49 5 -56
-10 -56 -16 0 -16 -2 -2 -15 18 -18 25 -19 45 -2 9 8 66 21 126 31 61 9 142
21 180 27 270 41 441 110 652 261 44 32 88 58 97 58 9 0 16 4 16 9 0 11 -25
21 -56 21 -17 0 -22 -4 -17 -16z m-232 -161 c-21 -14 -48 -26 -60 -27 -13 0
-23 -5 -22 -10 1 -4 -16 -15 -38 -22 -22 -8 -53 -21 -70 -28 -59 -27 -132 -45
-270 -66 -77 -12 -176 -28 -219 -36 -44 -8 -80 -13 -81 -12 -1 2 -11 38 -22
81 -19 73 -19 78 -3 87 41 22 119 32 325 41 121 5 279 13 350 17 72 4 134 6
138 4 5 -2 -8 -15 -28 -29z"/>
<path d="M2165 2110 c-3 -6 1 -7 9 -4 18 7 21 14 7 14 -6 0 -13 -4 -16 -10z"/>
<path d="M1945 2090 c-8 -13 5 -13 25 0 13 8 13 10 -2 10 -9 0 -20 -4 -23 -10z"/>
<path d="M1960 2066 c0 -2 9 -6 20 -9 11 -3 18 -1 14 4 -5 9 -34 13 -34 5z"/>
<path d="M3095 2230 c-3 -5 -1 -10 4 -10 6 0 11 5 11 10 0 6 -2 10 -4 10 -3 0
-8 -4 -11 -10z"/>
<path d="M1375 2200 c3 -5 11 -10 16 -10 6 0 7 5 4 10 -3 6 -11 10 -16 10 -6
0 -7 -4 -4 -10z"/>
<path d="M1170 2179 c0 -5 5 -7 10 -4 6 3 10 8 10 11 0 2 -4 4 -10 4 -5 0 -10
-5 -10 -11z"/>
<path d="M2750 2065 c-11 -13 -10 -14 4 -9 9 3 16 10 16 15 0 13 -6 11 -20 -6z"/>
<path d="M2957 2023 c-4 -3 -7 -11 -7 -17 0 -6 5 -5 12 2 6 6 9 14 7 17 -3 3
-9 2 -12 -2z"/>
<path d="M1411 1953 c-1 -17 4 -35 9 -38 11 -7 11 9 0 45 -8 24 -8 24 -9 -7z"/>
<path d="M1310 1961 c0 -6 4 -13 10 -16 6 -3 7 1 4 9 -7 18 -14 21 -14 7z"/>
<path d="M2221 1963 c-8 -3 -29 -16 -48 -29 -51 -34 -172 -71 -328 -99 -77
-14 -175 -35 -217 -47 -65 -18 -83 -20 -115 -10 -40 12 -67 2 -47 -18 24 -24
84 -22 181 3 54 14 136 33 183 41 109 21 253 68 327 107 69 37 109 70 64 52z"/>
<path d="M1392 1900 c0 -14 2 -19 5 -12 2 6 2 18 0 25 -3 6 -5 1 -5 -13z"/>
<path d="M1400 1819 c0 -18 12 -33 28 -36 18 -4 15 12 -8 32 -15 14 -20 15
-20 4z"/>
<path d="M1670 1750 c0 -5 7 -7 15 -4 8 4 15 8 15 10 0 2 -7 4 -15 4 -8 0 -15
-4 -15 -10z"/>
<path d="M1620 1739 c-12 -9 -12 -10 4 -5 11 4 23 1 28 -6 7 -10 9 -10 6 1 -6
20 -20 23 -38 10z"/>
<path d="M1640 1700 c0 -5 4 -10 9 -10 6 0 13 5 16 10 3 6 -1 10 -9 10 -9 0
-16 -4 -16 -10z"/>
<path d="M1575 1640 c3 -5 8 -10 11 -10 2 0 4 5 4 10 0 6 -5 10 -11 10 -5 0
-7 -4 -4 -10z"/>
<path d="M1560 1599 c0 -5 5 -7 10 -4 6 3 10 8 10 11 0 2 -4 4 -10 4 -5 0 -10
-5 -10 -11z"/>
<path d="M1625 1290 c-3 -5 -1 -10 4 -10 6 0 11 5 11 10 0 6 -2 10 -4 10 -3 0
-8 -4 -11 -10z"/>
<path d="M4480 2249 c0 -5 5 -7 10 -4 6 3 10 8 10 11 0 2 -4 4 -10 4 -5 0 -10
-5 -10 -11z"/>
<path d="M4385 2230 c-3 -5 -1 -10 4 -10 6 0 11 5 11 10 0 6 -2 10 -4 10 -3 0
-8 -4 -11 -10z"/>
<path d="M3310 2059 c0 -5 5 -7 10 -4 6 3 10 8 10 11 0 2 -4 4 -10 4 -5 0 -10
-5 -10 -11z"/>
<path d="M3360 2015 c-7 -9 -8 -15 -2 -15 5 0 12 7 16 15 3 8 4 15 2 15 -2 0
-9 -7 -16 -15z"/>
<path d="M3225 2001 c-6 -11 9 -23 19 -14 9 9 7 23 -3 23 -6 0 -12 -4 -16 -9z"/>
<path d="M3200 1960 c0 -11 2 -20 4 -20 2 0 6 9 9 20 3 11 1 20 -4 20 -5 0 -9
-9 -9 -20z"/>
<path d="M3161 1864 c0 -11 3 -14 6 -6 3 7 2 16 -1 19 -3 4 -6 -2 -5 -13z"/>
<path d="M3372 1830 c0 -14 2 -19 5 -12 2 6 2 18 0 25 -3 6 -5 1 -5 -13z"/>
<path d="M3180 1798 c0 -9 5 -20 10 -23 13 -8 13 5 0 25 -8 13 -10 13 -10 -2z"/>
<path d="M3160 1766 c0 -9 5 -16 10 -16 6 0 10 4 10 9 0 6 -4 13 -10 16 -5 3
-10 -1 -10 -9z"/>
<path d="M3130 1755 c0 -8 2 -15 4 -15 2 0 6 7 10 15 3 8 1 15 -4 15 -6 0 -10
-7 -10 -15z"/>
<path d="M3420 1711 c0 -20 13 -35 23 -25 7 8 -4 44 -14 44 -5 0 -9 -9 -9 -19z"/>
<path d="M3400 1626 c0 -8 13 -16 30 -18 32 -5 43 15 14 26 -26 10 -44 7 -44
-8z"/>
<path d="M3085 1570 c3 -5 8 -10 11 -10 2 0 4 5 4 10 0 6 -5 10 -11 10 -5 0
-7 -4 -4 -10z"/>
<path d="M3091 1545 c1 -19 18 -51 18 -35 0 8 -4 22 -9 30 -5 8 -9 11 -9 5z"/>
<path d="M3052 1500 c0 -14 2 -19 5 -12 2 6 2 18 0 25 -3 6 -5 1 -5 -13z"/>
<path d="M3081 1494 c0 -11 3 -14 6 -6 3 7 2 16 -1 19 -3 4 -6 -2 -5 -13z"/>
<path d="M3491 1494 c0 -11 3 -14 6 -6 3 7 2 16 -1 19 -3 4 -6 -2 -5 -13z"/>
<path d="M3040 1439 c0 -11 4 -18 10 -14 5 3 7 12 3 20 -7 21 -13 19 -13 -6z"/>
<path d="M3085 1450 c-3 -5 -1 -10 4 -10 6 0 11 5 11 10 0 6 -2 10 -4 10 -3 0
-8 -4 -11 -10z"/>
<path d="M3021 1364 c0 -11 3 -14 6 -6 3 7 2 16 -1 19 -3 4 -6 -2 -5 -13z"/>
<path d="M3390 1359 c0 -5 5 -7 10 -4 6 3 10 8 10 11 0 2 -4 4 -10 4 -5 0 -10
-5 -10 -11z"/>
<path d="M3002 1310 c0 -14 2 -19 5 -12 2 6 2 18 0 25 -3 6 -5 1 -5 -13z"/>
<path d="M2986 1211 c-4 -7 -5 -15 -2 -18 9 -9 19 4 14 18 -4 11 -6 11 -12 0z"/>
<path d="M2960 1130 c0 -5 5 -10 11 -10 5 0 7 5 4 10 -3 6 -8 10 -11 10 -2 0
-4 -4 -4 -10z"/>
<path d="M1020 1761 c-12 -24 -13 -34 -1 -27 9 6 22 46 15 46 -2 0 -8 -9 -14
-19z"/>
<path d="M1446 1575 c8 -37 14 -45 14 -19 0 10 -5 26 -10 34 -8 11 -9 7 -4
-15z"/>
<path d="M1295 1570 c-3 -5 -1 -10 4 -10 6 0 11 5 11 10 0 6 -2 10 -4 10 -3 0
-8 -4 -11 -10z"/>
<path d="M2995 1920 c-3 -5 -1 -10 4 -10 6 0 11 5 11 10 0 6 -2 10 -4 10 -3 0
-8 -4 -11 -10z"/>
<path d="M3000 1824 c0 -14 4 -23 9 -20 5 3 7 15 4 26 -7 28 -13 25 -13 -6z"/>
<path d="M3061 1784 c0 -11 3 -14 6 -6 3 7 2 16 -1 19 -3 4 -6 -2 -5 -13z"/>
<path d="M2830 1759 c0 -5 5 -7 10 -4 6 3 10 8 10 11 0 2 -4 4 -10 4 -5 0 -10
-5 -10 -11z"/>
<path d="M3012 1630 c0 -14 2 -19 5 -12 2 6 2 18 0 25 -3 6 -5 1 -5 -13z"/>
<path d="M2675 1630 c-3 -5 -1 -10 4 -10 6 0 11 5 11 10 0 6 -2 10 -4 10 -3 0
-8 -4 -11 -10z"/>
<path d="M2695 1600 c-3 -5 -1 -10 4 -10 6 0 11 5 11 10 0 6 -2 10 -4 10 -3 0
-8 -4 -11 -10z"/>
<path d="M2971 1584 c0 -11 3 -14 6 -6 3 7 2 16 -1 19 -3 4 -6 -2 -5 -13z"/>
<path d="M2565 1523 c-32 -32 -73 -68 -90 -80 -93 -67 -137 -94 -143 -88 -3 3
0 11 8 16 13 9 13 10 0 6 -8 -2 -15 -11 -15 -20 0 -9 -17 -28 -38 -42 -40 -28
-49 -55 -17 -55 11 0 20 5 20 11 0 6 7 8 16 5 8 -3 12 -2 9 3 -3 5 32 34 77
65 46 30 98 66 117 80 19 14 38 23 42 20 5 -3 9 -1 9 5 0 6 20 31 45 57 44 45
57 74 33 74 -7 0 -40 -26 -73 -57z"/>
<path d="M2575 1450 c-3 -5 -2 -10 4 -10 5 0 13 5 16 10 3 6 2 10 -4 10 -5 0
-13 -4 -16 -10z"/>
<path d="M2912 1260 c0 -14 2 -19 5 -12 2 6 2 18 0 25 -3 6 -5 1 -5 -13z"/>
<path d="M2510 920 c0 -5 6 -10 14 -10 8 0 16 -5 18 -12 2 -6 10 -8 17 -4 9 6
5 12 -14 22 -32 17 -35 17 -35 4z"/>
<path d="M1981 904 c0 -11 3 -14 6 -6 3 7 2 16 -1 19 -3 4 -6 -2 -5 -13z"/>
<path d="M2480 906 c0 -2 7 -7 16 -10 8 -3 12 -2 9 4 -6 10 -25 14 -25 6z"/>
<path d="M2460 860 c0 -5 5 -10 10 -10 6 0 10 5 10 10 0 6 -4 10 -10 10 -5 0
-10 -4 -10 -10z"/>
<path d="M1977 790 c-3 -11 -2 -22 2 -24 4 -3 8 6 9 20 2 29 -4 31 -11 4z"/>
<path d="M2241 748 c-16 -26 -11 -30 11 -7 10 10 14 20 10 23 -5 3 -14 -4 -21
-16z"/>
<path d="M2033 685 c-3 -9 -3 -18 -1 -21 3 -3 8 4 11 16 6 23 -1 27 -10 5z"/>
<path d="M2128 683 c7 -3 16 -2 19 1 4 3 -2 6 -13 5 -11 0 -14 -3 -6 -6z"/>
<path d="M911 3924 c0 -11 3 -14 6 -6 3 7 2 16 -1 19 -3 4 -6 -2 -5 -13z"/>
<path d="M931 3887 c-1 -21 29 -90 36 -84 2 3 -5 26 -16 53 -11 27 -20 41 -20
31z"/>
<path d="M920 3811 c0 -6 5 -13 10 -16 6 -3 10 1 10 9 0 9 -4 16 -10 16 -5 0
-10 -4 -10 -9z"/>
<path d="M866 3775 c-9 -26 -7 -32 5 -12 6 10 9 21 6 23 -2 3 -7 -2 -11 -11z"/>
<path d="M313 3031 c0 -11 5 -18 9 -15 4 3 5 11 1 19 -7 21 -12 19 -10 -4z"/>
<path d="M260 3020 c0 -5 5 -10 10 -10 6 0 10 5 10 10 0 6 -4 10 -10 10 -5 0
-10 -4 -10 -10z"/>
<path d="M1 2864 c0 -11 3 -14 6 -6 3 7 2 16 -1 19 -3 4 -6 -2 -5 -13z"/>
<path d="M4440 2501 c0 -6 5 -13 10 -16 6 -3 10 1 10 9 0 9 -4 16 -10 16 -5 0
-10 -4 -10 -9z"/>
<path d="M80 1097 c0 -12 -39 -182 -46 -203 -5 -13 -4 -16 3 -9 12 12 56 205
48 213 -3 3 -5 2 -5 -1z"/>
<path d="M465 919 c-4 -6 -5 -12 -2 -15 2 -3 7 2 10 11 7 17 1 20 -8 4z"/>
<path d="M30 850 c0 -5 5 -10 10 -10 6 0 10 5 10 10 0 6 -4 10 -10 10 -5 0
-10 -4 -10 -10z"/>
<path d="M201 845 c-1 -11 -4 -31 -6 -45 l-6 -25 11 25 c6 13 9 33 7 45 -4 19
-4 19 -6 0z"/>
<path d="M424 825 c-11 -27 2 -37 14 -11 7 16 8 26 1 26 -5 0 -12 -7 -15 -15z"/>
<path d="M6 784 c-4 -20 -5 -38 -3 -40 3 -3 8 11 11 32 4 20 5 38 3 40 -3 3
-8 -11 -11 -32z"/>
<path d="M417 763 c-4 -3 -7 -16 -6 -27 0 -19 1 -19 10 3 10 24 8 36 -4 24z"/>
<path d="M11 674 c0 -11 3 -14 6 -6 3 7 2 16 -1 19 -3 4 -6 -2 -5 -13z"/>
<path d="M182 640 c0 -14 2 -19 5 -12 2 6 2 18 0 25 -3 6 -5 1 -5 -13z"/>
<path d="M145 609 c-4 -6 -5 -12 -2 -15 2 -3 7 2 10 11 7 17 1 20 -8 4z"/>
<path d="M2 580 c0 -14 2 -19 5 -12 2 6 2 18 0 25 -3 6 -5 1 -5 -13z"/>
<path d="M124 565 c-3 -8 -4 -20 -2 -27 3 -7 7 -1 10 15 6 29 1 36 -8 12z"/>
<path d="M170 571 c0 -5 -3 -18 -6 -28 -6 -16 -5 -16 9 2 19 23 21 35 7 35 -5
0 -10 -4 -10 -9z"/>
<path d="M142 520 c0 -14 2 -19 5 -12 2 6 2 18 0 25 -3 6 -5 1 -5 -13z"/>
<path d="M112 500 c0 -14 2 -19 5 -12 2 6 2 18 0 25 -3 6 -5 1 -5 -13z"/>
<path d="M325 509 c-4 -6 -5 -12 -2 -15 2 -3 7 2 10 11 7 17 1 20 -8 4z"/>
<path d="M246 465 c4 -8 10 -15 15 -15 4 0 6 7 3 15 -4 8 -10 15 -15 15 -4 0
-6 -7 -3 -15z"/>
<path d="M161 434 c0 -11 3 -14 6 -6 3 7 2 16 -1 19 -3 4 -6 -2 -5 -13z"/>
<path d="M226 424 c-8 -22 -8 -44 2 -44 4 0 7 14 8 30 1 34 -1 37 -10 14z"/>
<path d="M136 339 c-8 -41 -8 -94 0 -86 4 4 8 22 9 41 2 19 6 44 10 55 3 12 2
21 -3 21 -5 0 -12 -14 -16 -31z"/>
<path d="M68 315 c-5 -25 -4 -25 10 -11 12 11 13 19 5 27 -7 7 -12 3 -15 -16z"/>
<path d="M181 283 c-13 -68 -13 -87 0 -53 11 27 23 110 16 110 -2 0 -9 -26
-16 -57z"/>
<path d="M251 234 c0 -11 3 -14 6 -6 3 7 2 16 -1 19 -3 4 -6 -2 -5 -13z"/>
<path d="M272 208 c-7 -7 -12 -21 -12 -32 1 -18 3 -17 16 7 17 31 15 44 -4 25z"/>
<path d="M245 130 c3 -5 8 -10 11 -10 2 0 4 5 4 10 0 6 -5 10 -11 10 -5 0 -7
-4 -4 -10z"/>
</g>
</svg>
